<svg xmlns="http://www.w3.org/2000/svg" xmlns:xlink="http://www.w3.org/1999/xlink">
  <defs>


    <g id="main-info-bg-1">
      <defs>
        <linearGradient id="main-info-1" x1="39.394%" x2="0%" y1="91.914%" y2="0%">
          <stop offset="0%" stop-color="rgb(75,38,105)" stop-opacity="1"/>
          <stop offset="100%" stop-color="rgb(133,53,130)" stop-opacity="1"/>
        </linearGradient>
      </defs>
      <path class="main-info-bg-1"
        fill-rule="evenodd"
        fill="url(#main-info-1)"
        d="M1372.000,696.009 C1372.000,696.009 1276.583,731.183 1203.262,736.208 C1129.941,741.233 999.370,721.133 896.922,724.148 C794.474,727.162 483.113,782.436 356.559,775.402 C242.351,769.053 43.917,707.876 6.283,695.999 L6.000,695.999 L6.000,695.909 C2.105,694.679 0.000,693.999 0.000,693.999 L6.000,694.008 L6.000,0.000 L1372.000,0.000 L1372.000,695.999 L1365.163,695.999 L1372.000,696.009 Z"/>
    </g>
    <g id="main-info-bg-2">
      <path fill-rule="evenodd"  opacity="0.369" fill="rgb(127, 51, 141)" d="M1436.000,101.999 C1436.000,101.999 1351.981,151.999 1301.000,157.999 C1250.019,163.998 1077.450,121.999 941.000,121.999 C804.550,121.999 672.472,183.499 596.000,178.999 C519.528,174.499 438.465,118.499 344.000,116.999 C249.535,115.499 159.471,146.999 80.000,140.999 C0.529,134.999 0.000,118.999 0.000,118.999 L6.000,11.999 L1445.000,-0.001 L1436.000,101.999 Z"/>
    </g>
    <g id="main-info-bg-3">
      <path fill-rule="evenodd"  opacity="0.322" fill="rgb(127, 51, 141)" d="M6.000,110.202 C6.000,110.202 123.027,185.517 198.000,205.710 C272.973,225.904 615.039,190.403 723.000,188.568 C830.960,186.732 954.029,220.402 1032.000,216.731 C1109.971,213.059 1216.528,162.855 1293.000,166.527 C1369.472,170.199 1442.000,199.588 1442.000,199.588 L1444.000,26.937 L0.000,-0.001 L6.000,110.202 Z"/>
    </g>

    <g id="btn-bg-1">
      <path fill-rule="evenodd"  stroke="rgb(255, 255, 255)" stroke-width="1px" stroke-linecap="butt" stroke-linejoin="miter" opacity="0.651" fill="none" d="M24.953,0.499 L105.989,0.499 C118.974,0.499 129.500,11.020 129.500,23.998 C129.500,36.977 118.974,47.499 105.989,47.499 L24.953,47.499 C11.968,47.499 1.442,36.977 1.442,23.998 C1.442,11.020 11.968,0.499 24.953,0.499 Z"/>
    </g>
    <g id="btn-bg-2">
      <defs>
        <linearGradient id="btn-2" x1="0%" x2="70.711%" y1="70.711%" y2="0%">
          <stop offset="1%" stop-color="rgb(122,60,142)" stop-opacity="1" />
          <stop offset="100%" stop-color="rgb(158,49,140)" stop-opacity="1" />
        </linearGradient>
      </defs>
      <path fill="url(#btn-2)" d="M19.000,-0.000 L97.000,-0.000 C107.493,-0.000 116.000,8.507 116.000,18.999 L116.000,20.000 C116.000,30.493 107.493,38.999 97.000,38.999 L19.000,38.999 C8.507,38.999 -0.000,30.493 -0.000,20.000 L-0.000,18.999 C-0.000,8.507 8.507,-0.000 19.000,-0.000 Z"/>
    </g>

    <symbol id="icon-play" viewBox="0 0 28 32">
        <path fill-rule="evenodd"  fill="rgb(255, 255, 255)" d="M28.000,15.999 C28.000,17.099 27.408,18.060 26.526,18.582 L26.526,18.582 L4.561,31.562 C4.553,31.566 4.546,31.570 4.538,31.575 L4.526,31.582 L4.526,31.582 C4.079,31.846 3.557,31.999 3.000,31.999 C1.343,31.999 -0.000,30.655 -0.000,28.999 L-0.000,28.999 L-0.000,2.998 L-0.000,2.998 C-0.000,1.343 1.343,-0.001 3.000,-0.001 C3.557,-0.001 4.079,0.151 4.526,0.416 L4.526,0.416 L4.538,0.423 C4.546,0.428 4.553,0.432 4.561,0.436 L26.526,13.416 L26.526,13.416 C27.408,13.939 28.000,14.900 28.000,15.999 Z"/>
    </symbol>
  </defs>
</svg>
